<svg enable-background="new 0 0 128 128" id="Слой_1" version="1.1" viewBox="0 0 128 128" xml:space="preserve" xmlns="http://www.w3.org/2000/svg" xmlns:xlink="http://www.w3.org/1999/xlink"><g><circle cx="64" cy="64" fill="#EEEBA8" r="62"/><g><g><path d="M62.4,31.4L62.4,31.4c-12.4,0-22.5,10.1-22.5,22.5v22.5h22.5c12.4,0,22.5-10.1,22.5-22.5     S74.8,31.4,62.4,31.4z" fill="#52544F"/></g><g><path d="M65.6,73.2c-0.7-2.2-2.6-3.7-4.8-4c-2.8-0.3-5-2.7-5.1-5.5l-0.1-5.2c-0.1-2.8-2.2-5.2-5-5.5l-8.2-1     c-1.2-0.2-2.4,0.8-2.4,2c0,0,0,0,0,0v22.5h22.5c0.3,0,0.6,0,0.9,0C64.9,76.3,66.1,74.7,65.6,73.2L65.6,73.2z" fill="#E3725D"/></g><g><g><path d="M62.4,77.4v-2c0.3,0,0.6,0,0.9,0c0.5,0,0.9-0.3,1.2-0.6c0.3-0.4,0.3-0.8,0.2-1.3c-0.6-1.8-2.1-3.1-4-3.3      c-3.3-0.4-5.9-3.1-6-6.5l-0.1-5.2c-0.1-2.3-1.8-4.3-4.1-4.5l-8.2-1c-0.3,0-0.7,0.1-0.9,0.3c-0.2,0.2-0.4,0.5-0.4,0.8l-2,0      c0-0.9,0.4-1.7,1-2.3c0.7-0.6,1.6-0.9,2.5-0.8l8.2,1c3.3,0.4,5.8,3.1,5.9,6.5l0.1,5.2c0.1,2.3,1.9,4.3,4.2,4.6      c2.7,0.3,4.9,2.1,5.7,4.7c0.3,1,0.1,2.1-0.5,3c-0.6,0.9-1.6,1.4-2.7,1.5C63,77.4,62.7,77.4,62.4,77.4z" fill="#2D2E2D"/></g></g><g><path d="M62.4,30.4c-13,0-23.5,10.5-23.5,23.5v22.5c0,0.6,0.4,1,1,1h22.5c13,0,23.5-10.5,23.5-23.5     S75.3,30.4,62.4,30.4z M62.4,75.4H40.9V53.9c0-11.9,9.6-21.5,21.5-21.5s21.5,9.6,21.5,21.5S74.2,75.4,62.4,75.4z" fill="#2D2E2D"/></g><g opacity="0.1"><g><path d="M74.1,34.8c2.1,3.4,3.3,7.4,3.3,11.7l0,0c0,12.4-7.7,22.6-19.3,25.7l-18.3,4.2h22.5      c12.4,0,22.5-10.1,22.5-22.5l0,0C84.9,45.8,80.5,38.7,74.1,34.8z" fill="#040606"/></g></g><g><path d="M83.9,48.3l26-26C104.8,16.7,98.6,12,91.8,8.6L68,32.4L83.9,48.3z" fill="#AB8C66"/></g><g><rect fill="#CCD1CD" height="15" transform="matrix(-0.7071 -0.7071 0.7071 -0.7071 113.856 117.282)" width="22.5" x="70" y="27.6"/></g><g opacity="0.1"><g><path d="M83.9,48.3l26-26c-1.7-1.9-3.5-3.6-5.4-5.2L78.6,43L83.9,48.3z" fill="#040606"/></g></g><g><path d="M79.3,21.1c-0.4-0.4-1-0.4-1.4,0L67.3,31.7c-0.2,0.2-0.3,0.4-0.3,0.7s0.1,0.5,0.3,0.7L83.2,49     c0.2,0.2,0.4,0.3,0.7,0.3s0.5-0.1,0.7-0.3l10.6-10.6c0.4-0.4,0.4-1,0-1.4L79.3,21.1z M83.9,46.9L69.4,32.4l9.2-9.2l14.5,14.5     L83.9,46.9z" fill="#2D2E2D"/></g><g><path d="M67.3,33.1L83.2,49c0.2,0.2,0.4,0.3,0.7,0.3s0.5-0.1,0.7-0.3l26-26c-0.4-0.5-0.9-1-1.3-1.5L83.9,46.9     L69.4,32.4L92.7,9.1c-0.6-0.3-1.2-0.7-1.9-1L67.3,31.7C66.9,32.1,66.9,32.7,67.3,33.1z" fill="#2D2E2D"/></g></g><g><g><path d="M84.9,93.3L84.9,93.3c-4.4-4.4-11.5-4.4-15.9,0l-28.2,28.2c7.2,2.9,15,4.5,23.2,4.5     c1.4,0,2.8-0.1,4.2-0.2l16.6-16.6C89.2,104.8,89.2,97.7,84.9,93.3z" fill="#AB8C66"/></g><g opacity="0.1"><g><path d="M84.9,93.3c-0.9-0.9-2-1.7-3.1-2.2c2,4.2,1.3,9.3-2.2,12.8l-21.8,21.8c2.1,0.2,4.1,0.3,6.2,0.3      c1.4,0,2.8-0.1,4.2-0.2l16.6-16.6C89.2,104.8,89.2,97.7,84.9,93.3z" fill="#040606"/></g></g><g><path d="M85.6,92.6c-2.3-2.3-5.4-3.6-8.7-3.6s-6.3,1.3-8.7,3.6l-28.5,28.5c0.7,0.3,1.3,0.5,2,0.8L69.6,94     c1.9-1.9,4.5-3,7.2-3s5.3,1.1,7.2,3c4,4,4,10.5,0,14.5l-17.4,17.4c1,0,2-0.1,3-0.2l15.8-15.8C90.3,105.1,90.3,97.4,85.6,92.6z" fill="#2D2E2D"/></g></g></g></svg>
